/* XPM */
static char *Player01[] = {
/* columns rows colors chars-per-pixel */
"52 87 15 1 ",
"  c #040302",
". c #1E1006",
"X c #1B1C20",
"o c #232428",
"O c #3E2E26",
"+ c #531A03",
"@ c #652207",
"# c #48372F",
"$ c gray37",
"% c gray47",
"& c #9A695B",
"* c #B68752",
"= c #BB8F82",
"- c #B1B1B1",
"; c None",
/* pixels */
";;;;;;;;;;;;;;;;;;;;;;;;;;;;;;;;;;;;;;;;;;;;;;;;;;;;",
";;;;;;;;;;;;;;;;;;;;;;;;;;;;;;;;;;;;;;;;;;;;;;;;;;;;",
";;;;;;;;;;;;;;;;;;;;;;;;;;;;;;;;;;;;;;;;;;;;;;;;;;;;",
";;;;;;;;;;;;;;;;;;;;;;;;;;;;;;;;;;;;;;;;;;;;;;;;;;;;",
";;;;;;;;;;;;;;;;;;     ;;;;;;;;;;;;;;;;;;;;;;;;;;;;;",
";;;;;;;;;;;;;;;;          ;;;;;;;;;;;;;;;;;;;;;;;;;;",
";;;;;;;;;;;;;;;          ;;;;;;;;;;;;;;;;;;;;;;;;;;;",
";;;;;;;;;;;;;;;    &   &;;;;;;;;;;;;;;;;;;;;;;;;;;;;",
";;;;;;;;;;;;;;;  &&&&&&&;;;;;;;;;;;;;;;;;;;;;;;;;;;;",
";;;;;;;;;;;;;;;  ======&;;;;;;;;;;;;;;;;;;;;;;;;;;;;",
";;;;;;;;;;;;;;;  === == ;;;;;;;;;;;;;;;;;;;;;;;;;;;;",
";;;;;;;;;;;;;;; =======&;;;;;;;;;;;;;;;;;;;;;;;;;;;;",
";;;;;;;;;;;;;;;;= ====&&;;;;;;;;;;;;;;;;;;;;;;;;;;;;",
";;;;;;;;;;;;;;;;&  =    o;;;;;;;;;;;;;;;;;;;;;;;;;;;",
";;;;;;;;;;;;;;;;;        +;;;;;;;;;;;;;;;;;;;;;;;;;;",
";;;;;;;;;;;;;;;;;        +;;;;;;;;;;;;;;;;;;;;;;;;;;",
";;;;;;;;;;;;;;;;ooo      @;;;;;;;;;;;;;;;;;;;;;;;;;;",
";;;;;;;;;;;;;;;++oo&    +@@;;;;;;;;;;;;;;;;;;;;;;;;;",
";;;;;;;;;;;;@@+++++o==o++@@;;;;;;;;;;;;;;;;;;;;;;;;;",
";;;;;;;;;*@@@@@@+++oo=++@@@@;;;;;;;;;;;;;;;;;;;;;;;;",
";;;;;;;;;**@@@@@@++++++@@@@@@@;;;;;;;;;;;;;;;;;;;;;;",
";;;;;;;;;X**@@@@@@@++++@@@@@@*;;;;;;;;;;;;;;;;;;;;;;",
";;;;;;;;ooX**@@@@@@@@+++@@@@**;;;;;;;;;;;;;;;;;;;;;;",
";;;;;;;=oooX**@@@@@@@@@@@@@**&;;;;;;;;;;;;;;;;;;;;;;",
";;;;;;;=XoooX***@@@@@@@@@@**&&;;;;;;;;;;;;;;;;;;;;;;",
";;;;;;;=&XoooXX**@@@@@@@@**X&=;;;;;;;;;;;;;;;;;;;;;;",
";;;;;;===XXooooX****@@@@**XX&==;;;;;;;;;;;;;;;;;;;;;",
";;;;;;===&XXooooXXX******XXX&==;;;;;;;;;;;;;;;;;;;;;",
";;;;;;===&XXoooooooXXXXXXooX&==;;;;;;;;;;;;;;;;;;;;;",
";;;;;;====&XXooooooooooooooX&===;;;;;;;;;;;;;;;;;;;;",
";;;;;=====&XXooooooooooooooX&===;;;;;;;;;;;;;;;;;;;;",
";;;;;=====&&XXooooooooooooXX&====;;;;;;;;;;;;;;;;;;;",
";;;;;====&&;XXooooooooooooXX&&===;;;;;;;;;;;;;;;;;;;",
";;;;;====&&;XXooooooooooooX&&&===;;;;;;;;;;;;;;;;;;;",
";;;;;===&&;;XXXoooooooooooX;&&&==o;;;;;;;;;;;;;;;;;;",
";;;;;===&;;;XXXoooooooooooX;;&&&oo;;;;;;;;;;;;;;;;;;",
";;;;====&;;;;XXoooooooooooX;;XXXoo;;;;;;;;;;;;;;;;;;",
";;;;o===&;;;;XXXooooooooooo;;XXXXoo;;;;;;;;;;;;;;;;;",
";;;;oo==&;;;;XXXooooooooooo;;;XXXoo;;;;;;;;;;;;;;;;;",
";;;;ooXXX;;;;XXXooooooooooo;;;XXXoo;;;;;;;;;;;;;;;;;",
";;;;;oXXX;;;;XXXXoooooooooo;;;;XXXo;;;;;;;;;;;;;;;;;",
";;;;;ooXX;;;;XXXXooooo$$$$..;;;XXXo;;;;;;;;;;;;;;;;;",
";;;;;ooXX;;;;XXXXooo..$..$..;;;XXXo;;;;;;;;;;;;;;;;;",
";;;;;oooX;;;.XXX......$..$..;;;;XXo;;;;;;;;;;;;;;;;;",
";;;;;;ooX;;;..........$..$..;;;;XXoo;;;;;;;;;;;;;;;;",
";;;;;;ooXX;;..........$..$.X;;;;;XXo;;;;;;;;;;;;;;;;",
";;;;;ooooX;;..........$$$$Xo;;;;&&=oo;;;;;;;;;;;;;;;",
";;;;;ooooX;;...........XXooo;;;&&&==o;;;;;;;;;;;;;;;",
";;;;;oXXX&&;.-.....XXXXoooooo;;&&&==;;;;;;;;;;;;;;;;",
";;;;;oXX==&;.---------------------------------;;;;;;",
";;;..XX===&..----------------------------------;;;;;",
";;;...===&&..-%%%%%%%%%%%%%%%%%%%%%%%%%%%%%%%%%;;;;;",
";;;;;;&&&&&;O-%%%%%%%%%%%%%%%%%%%%%%%%%%%%%%%%;;;;;;",
";;;;;;;&&&;;O-OXXXXXXXXXXXXXo;;;;;;;;;;;;;;;;;;;;;;;",
";;;;;;;;;;;##OOXXooooooooooooo;;;;;;;;;;;;;;;;;;;;;;",
";;;;;;;;;;;###OXXooooooooooooo;;;;;;;;;;;;;;;;;;;;;;",
";;;;;;;;;;;###OOXXooooooooooooo;;;;;;;;;;;;;;;;;;;;;",
";;;;;;;;;;;###OOXXooooooooooooo;;;;;;;;;;;;;;;;;;;;;",
";;;;;;;;;;;####OXXooooooooooooo;;;;;;;;;;;;;;;;;;;;;",
";;;;;;;;;;;####OXXXooooooooooooo;;;;;;;;;;;;;;;;;;;;",
";;;;;;;;;;;####OXXXXoooooooooooo;;;;;;;;;;;;;;;;;;;;",
";;;;;;;;;;;####OOXXXooooooooooooo;;;;;;;;;;;;;;;;;;;",
";;;;;;;;;;;####OOXXXXooooXXXXoooo;;;;;;;;;;;;;;;;;;;",
";;;;;;;;;;;#####OO;XXXXXXXXXO;;;;;;;;;;;;;;;;;;;;;;;",
";;;;;;;;;;;#####OO;;;;OOOOOOO;;;;;;;;;;;;;;;;;;;;;;;",
";;;;;;;;;;;#######;;;;O######;;;;;;;;;;;;;;;;;;;;;;;",
";;;;;;;;;;########;;;;O######;;;;;;;;;;;;;;;;;;;;;;;",
";;;;;;;;;;#######;;;;;O#####;;;;;;;;;;;;;;;;;;;;;;;;",
";;;;;;;;;#######;;;;;OO####;;;;;;;;;;;;;;;;;;;;;;;;;",
";;;;;;;;;#######;;;;;O#####;;;;;;;;;;;;;;;;;;;;;;;;;",
";;;;;;;;;#######;;;;;O####;;;;;;;;;;;;;;;;;;;;;;;;;;",
";;;;;;;;;#######;;;;;O####;;;;;;;;;;;;;;;;;;;;;;;;;;",
";;;;;;;;;ooooooX;;;;;O####;;;;;;;;;;;;;;;;;;;;;;;;;;",
";;;;;;;;;oooooXX;;;;;XX###;;;;;;;;;;;;;;;;;;;;;;;;;;",
";;;;;;;;;;ooooXX;;;;;XoooX;;;;;;;;;;;;;;;;;;;;;;;;;;",
";;;;;;;;;;oooXX;;;;;;XoooX;;;;;;;;;;;;;;;;;;;;;;;;;;",
";;;;;;;;;;oooXX;;;;;;XooX;;;;;;;;;;;;;;;;;;;;;;;;;;;",
";;;;;;;;;;oooXX;;;;;;XooX;;;;;;;;;;;;;;;;;;;;;;;;;;;",
";;;;;;;;;;ooooX;;;;;;ooooo;;;;;;;;;;;;;;;;;;;;;;;;;;",
";;;;;;;;;;ooooXX;;;;;oooooo;;;;;;;;;;;;;;;;;;;;;;;;;",
";;;;;;;;;ooooooX;;;;;ooooooo;;;;;;;;;;;;;;;;;;;;;;;;",
";;;;;;;;;ooooooXX;;;;XXXXXooo;;;;;;;;;;;;;;;;;;;;;;;",
";;;;;;;;;XXXXXXXX;;;;;XXXXXXX;;;;;;;;;;;;;;;;;;;;;;;",
";;;;;;;;;;;;;;;;;;;;;;;;;;;;;;;;;;;;;;;;;;;;;;;;;;;;",
";;;;;;;;;;;;;;;;;;;;;;;;;;;;;;;;;;;;;;;;;;;;;;;;;;;;",
";;;;;;;;;;;;;;;;;;;;;;;;;;;;;;;;;;;;;;;;;;;;;;;;;;;;",
";;;;;;;;;;;;;;;;;;;;;;;;;;;;;;;;;;;;;;;;;;;;;;;;;;;;"
};
