/* XPM */
static char *Player_01[] = {
/* columns rows colors chars-per-pixel */
"16 16 84 1 ",
"  c #16171C",
". c #1B1A1C",
"X c #1F1E1F",
"o c #30251D",
"O c #39231B",
"+ c #1C1D22",
"@ c #1D1F23",
"# c #1E1F23",
"$ c #202125",
"% c #222225",
"& c #202126",
"* c #202227",
"= c #212327",
"- c #222226",
"; c #232427",
": c #272425",
"> c #2A2524",
", c #2A2627",
"< c #2B2627",
"1 c #2F2827",
"2 c #222328",
"3 c #222428",
"4 c #252428",
"5 c #242529",
"6 c #26272B",
"7 c #2E292A",
"8 c #312720",
"9 c #3D2D26",
"0 c #322D2B",
"q c #342D29",
"w c #372E2B",
"e c #302D2D",
"r c #302C2E",
"t c #3A2F29",
"y c #39302A",
"u c #3D312C",
"i c #3C3333",
"p c #3B3436",
"a c #4C1A06",
"s c #461D0D",
"d c #412318",
"f c #632308",
"g c #6F2D0F",
"h c #672C10",
"j c #6C3316",
"k c #6A3318",
"l c #44342C",
"z c #45352D",
"x c #46352D",
"c c #46372D",
"v c #47362F",
"b c #48372F",
"n c #4D3B32",
"m c #403D3C",
"M c #4B3B3A",
"N c #4C3B39",
"B c #503B35",
"V c #503D37",
"C c #623B24",
"Z c #45403E",
"A c #54403A",
"S c #774222",
"D c #61473F",
"F c #7E5239",
"G c #5B4742",
"H c #695046",
"J c #71564F",
"K c #6F5851",
"L c #6A5854",
"P c #626161",
"I c #626263",
"U c #636365",
"Y c #696562",
"T c #676869",
"R c #866359",
"E c #9F7B71",
"W c #AC8073",
"Q c #AF8478",
"! c #B98B7D",
"~ c #8A8685",
"^ c #918F8F",
"/ c #988F8D",
"( c #929292",
") c None",
/* pixels */
"))))))))))))))))",
")))))BD)))))))))",
")))))AVO))))))))",
")))Sfsdag)))))))",
"))KcCkhjF)))))))",
"))QM;0tqG!))))))",
")EW)@32*NJ))))))",
")pi).X:e) +)))))",
"))r98oyZm)L)))))",
"))RHYPIUT~/^(())",
")))nu-5556))))))",
")))bl>%,,4))))))",
")))vv))zx)))))))",
")))7<)1w))))))))",
")))=#)$&))))))))",
"))))))))))))))))"
};
