/* XPM */
static char *wall_[] = {
/* columns rows colors chars-per-pixel */
"16 16 8 1 ",
"  c #7A4D25",
". c #7F5126",
"X c #865529",
"o c #905C2C",
"O c #A87A42",
"+ c #B2874B",
"@ c #C19959",
"# c None",
/* pixels */
"################",
"################",
"#+@##@@##@@##@@#",
"#+@o.@@o.@@o.@@#",
"#+@..@@..@@..@@#",
"#+@##@@##@@##@@#",
"#+@##@@##@@##@@#",
"#+@o.@@o.@@o.@@#",
"#+@..@@..@@..@@#",
"#+@##@@##@@##@@#",
"#+@##@@##@@##@@#",
"#O+X ++o.++o.++#",
"#oo..........oo#",
"#oo..........oo#",
"#oo##########oo#",
"################"
};
