/* XPM */
static char *collect[] = {
/* columns rows colors chars-per-pixel */
"28 28 7 1 ",
"  c #EF692F",
". c #F2AC29",
"X c #E3936B",
"o c #3C9F9C",
"O c #66D1A6",
"+ c #F5C187",
"@ c None",
/* pixels */
"@@@@@@@@@@@@@@@@@@@@@@@@@@@@",
"@@@@@@@@@@@@@@@@@@@@@@@@@@@@",
"@@@@@@@@@@@@@@@@@@@@@@@@@@@@",
"@@@@@@@@.@.@@@@@@@@@@@@@@@@@",
"@@@@@@@@.....@@@@@@@@@@@@@@@",
"@@@@@@@@     @@@@@@@@@@@@@@@",
"@@@@@@@@ +++ @@@@@@@@@@@@@@@",
"@@@@@@@@ o+o+@@@@@@@@@@@@@@@",
"@@@@@@@@@+++ @@@@@@@@@@@@@@@",
"@@@@@@@@@@@X @@@@@@@@@@@@@@@",
"@@@@@@@@@+O  @@@@@@@@@@@@@@@",
"@@@@@@@@@+O O+@@@@@@@@@@@@@@",
"@@@@@@@@+OO O+@@@@@@@@@@@@@@",
"@@@@@@@@+OOOO+@@@@@@@@@@@@@@",
"@@@@+@@++OOOO+@@@@@@@@@@@@@@",
"@@@@@++@@OOOO+@@@@@@@@@@@@@@",
"@@@@@@@@@...+.@@@@@@@@@@@@@@",
"@@@@@@@@@OOO+O@@@@@@@@@@@@@@",
"@@@@@@@@@OO+OOO@@@@@@@@@@@@@",
"@@@@@@@@OOO++OOO@@@@@@@@@@@@",
"@@@@@@@@OOOooOOOO@@@@@@@@@@@",
"@@@@@@@@OOOoooOOOO@@@@@@@@@@",
"@@@@@@@@OOOOooOOOOO@@@@@@@@@",
"@@@@@@@OOOOOoooOOOOOO@@@@@@@",
"@@@@@@@OOOoOOoooOOOoOOOO@@@@",
"@@@@@@@OoOoOOooooOOOooo@@@@@",
"@@@@@@OOoOOoOOoooooOOO@@@@@@",
"@@@@@@@@oOOooOOooo@@@@@@@@@@"
};
