/* XPM */
static char *princess_03[] = {
/* columns rows colors chars-per-pixel */
"16 16 54 1 ",
"  c #F29A29",
". c #F29B29",
"X c #B39663",
"o c #ABBE66",
"O c #DF915D",
"+ c #E69258",
"@ c #E6945A",
"# c #CDBF75",
"$ c #C3B27D",
"% c #B5C06F",
"& c #3B9E9C",
"* c #3C9F9C",
"= c #40A69E",
"- c #43A79E",
"; c #45A99E",
": c #4BB09F",
"> c #7FBC8E",
", c #72BF9E",
"< c #4CB3A0",
"1 c #4DB3A0",
"2 c #4DB4A0",
"3 c #4EB5A0",
"4 c #4FB8A1",
"5 c #50B6A1",
"6 c #52B9A1",
"7 c #55BDA2",
"8 c #56BDA2",
"9 c #7FCD9C",
"0 c #59C1A3",
"q c #5AC3A3",
"w c #5CC5A4",
"e c #5DC6A4",
"r c #5FC9A4",
"t c #62CCA5",
"y c #62CDA5",
"u c #64CFA6",
"i c #63D1A6",
"p c #65D1A6",
"a c #66D1A6",
"s c #66D2A6",
"d c #67D2A6",
"f c #6AD1A2",
"g c #68D0A4",
"h c #80B798",
"j c #C3AE83",
"k c #C9B184",
"l c #87CD9E",
"z c #8BCD9E",
"x c #AACA96",
"c c #B3C794",
"v c #B4C892",
"b c #B2C895",
"n c #EBC289",
"m c None",
/* pixels */
"mmmmmmmmmmmmmmmm",
"mmmmmmmmmmmmmmmm",
"mmmmm. mmmmmmmmm",
"mmmmm+@mmmmmmmmm",
"mmmmmjkmmmmmmmmm",
"mmmmmmOmmmmmmmmm",
"mmmmmbX$mmmmmmmm",
"mmmmml>cmmmmmmmm",
"mmmmn9fvmmmmmmmm",
"mmmmmo%#mmmmmmmm",
"mmmmmgxzimmmmmmm",
"mmmmmah,pammmmmm",
"mmmmmd4=tsmmmmmm",
"mmmmaye-<uurmmmm",
"mmmmq806*1e75mmm",
"mmmm3w20:&;mmmmm"
};
